HIERARCHY
ROOT Hips
{
	OFFSET 52.255798 -4.200464 86.470596
	CHANNELS 6 Xposition Yposition Zposition Xrotation Yrotation Zrotation
	JOINT spine
	{
		OFFSET 0.000000 -0.393701 6.846367
		CHANNELS 3 Xrotation Yrotation Zrotation
		JOINT spine1
		{
			OFFSET 0.000000 -0.000001 9.496208
			CHANNELS 3 Xrotation Yrotation Zrotation
			JOINT spine2
			{
				OFFSET 0.000000 -0.000001 9.099091
				CHANNELS 3 Xrotation Yrotation Zrotation
				JOINT Neck
				{
					OFFSET 0.000000 -1.113784 23.361206
					CHANNELS 3 Xrotation Yrotation Zrotation
					JOINT Head
					{
						OFFSET 0.000000 -0.000001 7.058014
						CHANNELS 3 Xrotation Yrotation Zrotation
						End Site
						{
							OFFSET 0.000000 5.634188 17.084396
						}
					}
				}
				JOINT RightShoulder
				{
					OFFSET -3.831360 0.533489 9.826309
					CHANNELS 3 Xrotation Yrotation Zrotation
					JOINT RightArm
					{
						OFFSET 0.000000 -0.000002 12.888107
						CHANNELS 3 Xrotation Yrotation Zrotation
						JOINT RightArmRoll
						{
							OFFSET 0.000000 -0.000001 6.506165
							CHANNELS 3 Xrotation Yrotation Zrotation
							JOINT RightForeArm
							{
								OFFSET 0.000000 -0.000003 18.950104
								CHANNELS 3 Xrotation Yrotation Zrotation
								JOINT RightForeArmRoll
								{
									OFFSET 0.000000 -0.000001 7.300934
									CHANNELS 3 Xrotation Yrotation Zrotation
									JOINT RightHand
									{
										OFFSET 0.000000 -0.000002 14.651398
										CHANNELS 3 Xrotation Yrotation Zrotation
										End Site
										{
											OFFSET 0.000000 0.000000 0.100006
										}
									}
								}
							}
						}
					}
				}
				JOINT LeftShoulder
				{
					OFFSET 3.831360 0.533489 9.826309
					CHANNELS 3 Xrotation Yrotation Zrotation
					JOINT LeftArm
					{
						OFFSET 0.000000 -0.000002 12.888107
						CHANNELS 3 Xrotation Yrotation Zrotation
						JOINT LeftArmRoll
						{
							OFFSET 0.000000 -0.000001 6.506165
							CHANNELS 3 Xrotation Yrotation Zrotation
							JOINT LeftForeArm
							{
								OFFSET 0.000000 -0.000003 18.950104
								CHANNELS 3 Xrotation Yrotation Zrotation
								JOINT LeftForeArmRoll
								{
									OFFSET 0.000000 -0.000001 7.300934
									CHANNELS 3 Xrotation Yrotation Zrotation
									JOINT LeftHand
									{
										OFFSET 0.000000 -0.000002 14.651398
										CHANNELS 3 Xrotation Yrotation Zrotation
										End Site
										{
											OFFSET 0.000000 0.000000 0.100006
										}
									}
								}
							}
						}
					}
				}
			}
		}
	}
	JOINT RightUpLeg
	{
		OFFSET -6.068371 0.933477 -1.112778
		CHANNELS 3 Xrotation Yrotation Zrotation
		JOINT RightUpLegRoll
		{
			OFFSET 0.000000 -0.000003 17.179596
			CHANNELS 3 Xrotation Yrotation Zrotation
			JOINT RightLeg
			{
				OFFSET 0.000000 0.000003 -21.274300
				CHANNELS 3 Xrotation Yrotation Zrotation
				JOINT RightLegRoll
				{
					OFFSET 0.000000 -0.000003 21.343903
					CHANNELS 3 Xrotation Yrotation Zrotation
					JOINT RightFoot
					{
						OFFSET 0.000000 -0.000003 17.765198
						CHANNELS 3 Xrotation Yrotation Zrotation
						JOINT RightToeBase
						{
							OFFSET 0.000000 -0.000002 14.850807
							CHANNELS 3 Xrotation Yrotation Zrotation
							End Site
							{
								OFFSET 0.006294 0.829004 7.192139
							}
						}
					}
				}
			}
		}
	}
	JOINT LeftUpLeg
	{
		OFFSET 6.068371 0.933477 -1.112778
		CHANNELS 3 Xrotation Yrotation Zrotation
		JOINT LeftUpLegRoll
		{
			OFFSET 0.000000 -0.000003 17.179703
			CHANNELS 3 Xrotation Yrotation Zrotation
			JOINT LeftLeg
			{
				OFFSET 0.000000 -0.000004 21.274200
				CHANNELS 3 Xrotation Yrotation Zrotation
				JOINT LeftLegRoll
				{
					OFFSET 0.000000 -0.000003 21.541199
					CHANNELS 3 Xrotation Yrotation Zrotation
					JOINT LeftFoot
					{
						OFFSET 0.000000 -0.000003 17.567902
						CHANNELS 3 Xrotation Yrotation Zrotation
						JOINT LeftToeBase
						{
							OFFSET 0.000000 -0.000002 14.850800
							CHANNELS 3 Xrotation Yrotation Zrotation
							End Site
							{
								OFFSET -0.028210 0.829004 7.192139
							}
						}
					}
				}
			}
		}
	}
}
MOTION
Frames: 7
Frame Time: 0.041667
52.800308 -3.288394 86.536797 -1.224708 -0.646066 -2.237722 -1.659495 -1.383750 0.743180 0.701711 -2.793723 1.460323 2.347368 -2.766800 1.493683 5.124150 22.609159 -4.651855 10.366633 -17.848147 -4.790836 -9.081274 -47.843153 -9.921278 -42.651915 -111.103955 -16.983363 -0.000002 -0.000001 -0.000005 0.108090 -13.170378 -0.411545 -0.000004 0.000006 -3.026399 -5.000250 -7.998740 0.000167 -28.385134 72.712309 32.703294 -81.786160 110.786433 51.690639 0.000003 -0.000016 0.000002 0.935096 13.548565 -0.833774 0.000001 -0.000004 2.999992 -5.000207 7.998722 -0.000142 -15.970890 -176.905970 -0.403847 179.999991 -0.000005 -1.069998 155.925214 -4.542314 -1.426507 0.000000 0.000002 0.458924 71.483838 7.357324 0.663592 25.456856 -7.355620 -0.000012 -13.099484 179.980525 1.269361 -0.000004 -0.000004 -1.167440 -25.119315 1.909499 1.102708 -0.000003 0.000001 -0.717243 75.310253 -6.805087 -1.902587 25.456965 7.355614 0.000000 
52.804409 -3.286047 86.536102 -1.239370 -0.647582 -2.246520 -1.657264 -1.383802 0.746297 0.706239 -2.792199 1.466625 2.351891 -2.765943 1.499976 5.131204 22.591686 -4.661177 10.364594 -17.828911 -4.800159 -9.099685 -47.856308 -9.945497 -42.695318 -111.127635 -17.126595 0.000000 -0.000001 -0.000005 0.106347 -13.223980 -0.401217 -0.000002 0.000005 -3.025942 -5.000249 -7.998741 0.000171 -28.329460 72.705916 32.642615 -81.735706 110.847400 51.644198 0.000002 -0.000017 0.000001 0.936838 13.537755 -0.833326 0.000002 -0.000006 2.999991 -5.000207 7.998724 -0.000146 -15.960675 -176.899058 -0.397966 179.999991 -0.000005 -1.069998 155.920337 -4.543966 -1.427704 0.000000 0.000003 0.458920 71.484166 7.357087 0.664029 25.456854 -7.355619 -0.000014 -13.084883 179.986358 1.267399 -0.000004 -0.000004 -1.167820 -25.121371 1.912899 1.102757 -0.000004 0.000001 -0.717627 75.313880 -6.806972 -1.895711 25.456965 7.355613 0.000000 
52.814907 -3.302297 86.535408 -1.254591 -0.649182 -2.255267 -1.654943 -1.383893 0.749562 0.710967 -2.790636 1.473226 2.356615 -2.765044 1.506557 5.138756 22.573394 -4.671112 10.362170 -17.809109 -4.810070 -9.118994 -47.869989 -9.970902 -42.739776 -111.150400 -17.269746 -0.000001 -0.000002 -0.000006 0.103690 -13.277181 -0.391096 -0.000006 0.000006 -3.025477 -5.000250 -7.998739 0.000172 -28.271589 72.699174 32.579545 -81.683250 110.909117 51.595157 0.000003 -0.000015 0.000004 0.938101 13.526456 -0.832820 0.000003 -0.000005 2.999988 -5.000210 7.998721 -0.000142 -15.950051 -176.893143 -0.391499 179.999991 -0.000005 -1.069998 155.915064 -4.545615 -1.427942 0.000000 0.000003 0.458918 71.484534 7.356911 0.664376 25.456858 -7.355619 -0.000013 -13.069785 179.993188 1.264984 -0.000004 -0.000004 -1.168210 -25.123528 1.916588 1.102829 -0.000005 0.000001 -0.718012 75.317548 -6.808959 -1.888346 25.456964 7.355615 0.000000 
52.807407 -3.320057 86.537994 -1.270198 -0.650840 -2.263980 -1.652543 -1.383995 0.752929 0.715833 -2.789024 1.480032 2.361479 -2.764135 1.513355 5.146668 22.554599 -4.681488 10.359478 -17.788727 -4.820426 -9.138986 -47.884216 -9.997177 -42.785668 -111.172373 -17.413678 -0.000001 -0.000000 -0.000006 0.100396 -13.330281 -0.381117 -0.000002 0.000005 -3.025042 -5.000249 -7.998741 0.000168 -28.212236 72.692201 32.514842 -81.629223 110.971265 51.544125 0.000004 -0.000014 0.000006 0.939037 13.514653 -0.832286 0.000004 -0.000006 2.999990 -5.000210 7.998721 -0.000142 -15.939141 -176.886245 -0.385093 179.999991 -0.000005 -1.069999 155.909682 -4.547247 -1.429180 0.000000 0.000003 0.458915 71.485136 7.356760 0.664514 25.456854 -7.355619 -0.000013 -13.054385 179.999021 1.262627 -0.000004 -0.000004 -1.168600 -25.125689 1.920484 1.102917 -0.000005 0.000001 -0.718397 75.321332 -6.810952 -1.880776 25.456967 7.355613 0.000000 
52.807507 -3.306707 86.542694 -1.286031 -0.652527 -2.272678 -1.650113 -1.384106 0.756356 0.720780 -2.787380 1.486952 2.366423 -2.763196 1.520265 5.154789 22.535390 -4.692106 10.356636 -17.768158 -4.831005 -9.159317 -47.898604 -10.023929 -42.831085 -111.194223 -17.556648 -0.000001 -0.000002 -0.000006 0.096737 -13.383283 -0.371230 -0.000005 0.000007 -3.024596 -5.000250 -7.998741 0.000172 -28.152117 72.685118 32.449320 -81.574425 111.033802 51.492113 0.000004 -0.000018 0.000002 0.939784 13.502653 -0.831726 0.000003 -0.000005 2.999989 -5.000208 7.998723 -0.000143 -15.928131 -176.879319 -0.378570 179.999991 -0.000005 -1.069999 155.904204 -4.548890 -1.429434 -0.000000 0.000003 0.458915 71.485620 7.356646 0.664662 25.456860 -7.355620 -0.000012 -13.038884 180.005865 1.259955 -0.000005 -0.000004 -1.168989 -25.127957 1.924497 1.103018 -0.000005 0.000001 -0.718782 75.325041 -6.813012 -1.873216 25.456964 7.355613 0.000000 
52.828308 -3.293235 86.536499 -1.301927 -0.654219 -2.281368 -1.647672 -1.384228 0.759796 0.725746 -2.785738 1.493903 2.371387 -2.762266 1.527206 5.162952 22.516183 -4.702785 10.353756 -17.747483 -4.841657 -9.179784 -47.913080 -10.050835 -42.876178 -111.216025 -17.699119 0.000000 0.000000 -0.000006 0.092988 -13.436183 -0.361370 -0.000001 0.000005 -3.024159 -5.000252 -7.998741 0.000172 -28.091745 72.677946 32.383525 -81.519763 111.096469 51.440074 0.000002 -0.000018 0.000001 0.940482 13.490651 -0.831160 0.000003 -0.000006 2.999989 -5.000209 7.998723 -0.000140 -15.917020 -176.872434 -0.372008 179.999991 -0.000005 -1.069999 155.898617 -4.550516 -1.429677 0.000000 0.000002 0.458914 71.486208 7.356496 0.664797 25.456856 -7.355620 -0.000013 -13.023286 180.012668 1.257281 -0.000005 -0.000004 -1.169380 -25.130219 1.928544 1.103124 -0.000003 0.000001 -0.719167 75.328749 -6.815097 -1.865562 25.456962 7.355615 -0.000000 
52.832409 -3.313285 86.532303 -1.317696 -0.655888 -2.290066 -1.645251 -1.384330 0.763208 0.730672 -2.784105 1.500792 2.376310 -2.761337 1.534085 5.171012 22.497175 -4.713347 10.350962 -17.727013 -4.852165 -9.200049 -47.927373 -10.077498 -42.921407 -111.237902 -17.842098 0.000001 -0.000000 -0.000006 0.089415 -13.489188 -0.351475 0.000000 0.000005 -3.023717 -5.000248 -7.998740 0.000172 -28.031995 72.670897 32.318396 -81.465954 111.159027 51.388895 0.000001 -0.000018 0.000004 0.941276 13.478750 -0.830606 0.000004 -0.000003 2.999991 -5.000205 7.998723 -0.000144 -15.906010 -176.865522 -0.365511 179.999991 -0.000005 -1.069999 155.893153 -4.552145 -1.430924 0.000000 0.000002 0.458913 71.486706 7.356381 0.665046 25.456854 -7.355620 -0.000012 -13.007786 180.018515 1.254864 -0.000004 -0.000004 -1.169770 -25.132386 1.932531 1.103221 -0.000003 0.000001 -0.719552 75.332458 -6.817155 -1.857903 25.456965 7.355613 0.000000 
